<svg width="287" height="98" fill="none" xmlns="http://www.w3.org/2000/svg"><path d="M264.54 6.04h-3.26V3.52h9.48v2.52h-3.3V17h-2.92V6.04zm18.2 5.94c-.027-.773-.054-1.607-.08-2.5-.027-.907-.04-1.82-.04-2.74h-.04c-.187.827-.4 1.673-.64 2.54-.227.867-.454 1.66-.68 2.38l-1.5 5.12h-2.22l-1.34-5.08c-.2-.72-.4-1.513-.6-2.38-.187-.88-.354-1.74-.5-2.58h-.06c-.027.867-.06 1.767-.1 2.7-.04.92-.074 1.78-.1 2.58l-.26 4.98h-2.64l.9-13.48h3.66l1.24 4.6c.213.8.413 1.607.6 2.42.186.8.353 1.593.5 2.38h.06c.16-.773.333-1.567.52-2.38.2-.827.406-1.633.62-2.42l1.32-4.6h3.62l.76 13.48h-2.78l-.22-5.02zM4.096 19.864H28.16v7.744H13.44v10.304H27.2v7.616H13.44V63H4.096V19.864zm40.531 0V63h-9.344V19.864h9.344zM52.846 63V19.864h10.24l8.256 16.128c1.11 2.09 2.219 4.395 3.328 6.912a105.42 105.42 0 013.008 7.232h.192c-.256-2.688-.47-5.59-.64-8.704a242.163 242.163 0 01-.192-9.92V19.864h8.448V63h-9.408L67.63 46.424a158.294 158.294 0 01-3.52-7.104 98.821 98.821 0 01-3.072-7.424h-.192c.128 2.688.235 5.61.32 8.768.085 3.115.128 6.57.128 10.368V63h-8.448zm50.157-7.104c.341.085.768.128 1.28.128h1.536c1.834 0 3.52-.277 5.056-.832a9.735 9.735 0 003.904-2.752c1.109-1.237 1.962-2.837 2.56-4.8.64-1.963.96-4.288.96-6.976 0-4.48-1.024-7.893-3.072-10.24-2.048-2.39-4.928-3.584-8.64-3.584-.854 0-1.579.043-2.176.128-.555.043-1.024.107-1.408.192v28.736zM93.659 20.44a72.09 72.09 0 015.375-.64 77.113 77.113 0 016.401-.256c3.712 0 6.826.363 9.344 1.088 2.517.725 4.714 1.835 6.592 3.328 2.133 1.664 3.797 3.861 4.992 6.592 1.194 2.688 1.792 6.016 1.792 9.984 0 4.267-.619 7.85-1.856 10.752-1.238 2.901-2.88 5.227-4.928 6.976-2.048 1.792-4.566 3.115-7.552 3.968-2.987.81-6.422 1.216-10.304 1.216-2.176 0-4.097-.064-5.76-.192-1.622-.128-2.987-.277-4.096-.448V20.44zm40.625-.576h9.28v19.2h.192a55.865 55.865 0 012.688-4.992l8.512-14.208h11.2L153.228 38.36 166.732 63h-10.688L146.7 44.632l-3.136 4.224V63h-9.28V19.864zm45.719 0V63h-9.344V19.864h9.344zM188.221 63V19.864h10.24l8.256 16.128a105.886 105.886 0 013.328 6.912 105.27 105.27 0 013.008 7.232h.192c-.256-2.688-.469-5.59-.64-8.704a242.163 242.163 0 01-.192-9.92V19.864h8.448V63h-9.408l-8.448-16.576a158.617 158.617 0 01-3.52-7.104 98.57 98.57 0 01-3.072-7.424h-.192c.128 2.688.235 5.61.32 8.768a382.7 382.7 0 01.128 10.368V63h-8.448zm73.197-1.728c-1.366.47-3.222.96-5.568 1.472-2.304.47-4.694.704-7.168.704-3.542 0-6.592-.427-9.152-1.28-2.56-.896-4.758-2.24-6.592-4.032-1.963-1.877-3.456-4.224-4.48-7.04-1.024-2.816-1.515-5.91-1.472-9.28.042-3.712.64-6.955 1.792-9.728 1.194-2.816 2.816-5.163 4.864-7.04 2.048-1.877 4.437-3.285 7.168-4.224 2.773-.939 5.738-1.408 8.896-1.408 2.474 0 4.608.192 6.4.576 1.792.384 3.157.81 4.095 1.28l-1.855 7.616c-1.024-.47-2.198-.853-3.52-1.152-1.323-.299-2.966-.448-4.928-.448-1.878 0-3.606.277-5.184.832a10.939 10.939 0 00-4.16 2.624c-1.195 1.152-2.134 2.645-2.816 4.48-.64 1.792-.96 3.925-.96 6.4 0 2.347.298 4.416.896 6.208.597 1.75 1.429 3.221 2.496 4.416a10.22 10.22 0 003.776 2.688c1.45.597 3.029.896 4.736.896 1.877 0 3.157-.17 3.84-.512v-9.536h-5.824v-7.36h14.72v22.848zM12.306 85.729a569.8 569.8 0 01-.084-2.625 97.859 97.859 0 01-.042-2.877h-.042a57.25 57.25 0 01-.672 2.667c-.238.91-.476 1.743-.714 2.499l-1.575 5.376H6.846l-1.407-5.334c-.21-.756-.42-1.589-.63-2.499a76.345 76.345 0 01-.525-2.709h-.063c-.028.91-.063 1.855-.105 2.835-.042.966-.077 1.869-.105 2.709L3.738 91H.966l.945-14.154h3.843l1.302 4.83c.224.84.434 1.687.63 2.541.196.84.371 1.673.525 2.499h.063c.168-.812.35-1.645.546-2.499.21-.868.427-1.715.651-2.541l1.386-4.83h3.801L15.456 91h-2.919l-.231-5.271zm8.278-8.883v3.885c0 1.19-.02 2.338-.063 3.444-.028 1.106-.07 2.1-.126 2.982h.042c.168-.378.343-.777.525-1.197.182-.42.371-.833.567-1.239.196-.42.392-.826.588-1.218l.546-1.134 2.772-5.523h3.024V91h-2.772v-3.885c0-1.204.014-2.303.042-3.297.042-.994.098-1.925.168-2.793h-.042c-.28.784-.616 1.603-1.008 2.457-.378.84-.749 1.617-1.113 2.331L21.11 91h-3.318V76.846h2.793zm13.623 6.615c.224.042.518.063.882.063.798 0 1.414-.203 1.848-.609.448-.42.672-.98.672-1.68 0-.644-.196-1.155-.588-1.533-.378-.392-.945-.588-1.7-.588-.505 0-.876.035-1.114.105v4.242zm-3.045-6.426a18.303 18.303 0 011.66-.21 26.01 26.01 0 012.225-.084c.938 0 1.75.091 2.436.273.7.168 1.288.455 1.764.861.448.364.791.826 1.03 1.386.251.546.377 1.155.377 1.827 0 .714-.112 1.358-.336 1.932a4.015 4.015 0 01-.924 1.449 4.868 4.868 0 01-1.89 1.092 7.724 7.724 0 01-2.373.357c-.364 0-.672-.021-.924-.063V91h-3.045V77.035zm18.426-.189v5.985h.252l3.423-5.985h3.633l-4.431 6.384c.434.112.805.28 1.113.504.308.21.574.462.798.756.238.294.44.63.609 1.008.168.364.315.756.44 1.176.225.742.442 1.477.652 2.205.224.714.483 1.421.777 2.121H53.62a9.263 9.263 0 01-.546-1.554 54.474 54.474 0 00-.441-1.617 9.94 9.94 0 00-.378-1.092 2.941 2.941 0 00-.483-.882 2.065 2.065 0 00-.714-.588c-.266-.14-.595-.21-.987-.21h-.483V91h-3.024V76.846h3.024zM66 84.931h-4.62v3.528h5.166V91h-8.232V76.846h7.938v2.541H61.38v3.045H66v2.499zm5.695-1.47c.224.042.518.063.882.063.798 0 1.414-.203 1.848-.609.448-.42.672-.98.672-1.68 0-.644-.196-1.155-.588-1.533-.378-.392-.945-.588-1.701-.588-.504 0-.875.035-1.113.105v4.242zm-3.045-6.426a18.303 18.303 0 011.659-.21 26.01 26.01 0 012.226-.084c.938 0 1.75.091 2.436.273.7.168 1.288.455 1.764.861.448.364.79.826 1.029 1.386.252.546.378 1.155.378 1.827 0 .714-.112 1.358-.336 1.932a4.015 4.015 0 01-.924 1.449 4.868 4.868 0 01-1.89 1.092 7.724 7.724 0 01-2.373.357c-.364 0-.672-.021-.924-.063V91H68.65V77.035zm16.407 8.148L84.3 82.18c-.112-.42-.224-.896-.335-1.428a37.308 37.308 0 00-.294-1.449h-.043c-.098.434-.196.924-.294 1.47a18.81 18.81 0 01-.314 1.428l-.757 2.982h2.794zm-3.193 2.31L80.984 91h-3.13l3.948-14.154h3.927L89.636 91h-3.213l-.944-3.507h-3.612zm20.532-1.764a569.8 569.8 0 01-.084-2.625 97.859 97.859 0 01-.042-2.877h-.042a57.25 57.25 0 01-.672 2.667c-.238.91-.476 1.743-.714 2.499l-1.575 5.376h-2.331l-1.407-5.334c-.21-.756-.42-1.589-.63-2.499a76.345 76.345 0 01-.525-2.709h-.063c-.028.91-.063 1.855-.105 2.835-.042.966-.077 1.869-.105 2.709L93.829 91h-2.772l.945-14.154h3.843l1.302 4.83c.224.84.434 1.687.63 2.541.196.84.37 1.673.525 2.499h.063c.168-.812.35-1.645.546-2.499.21-.868.427-1.715.65-2.541l1.387-4.83h3.801L105.547 91h-2.919l-.231-5.271zm8.278-8.883v3.885c0 1.19-.021 2.338-.063 3.444-.028 1.106-.07 2.1-.126 2.982h.042c.168-.378.343-.777.525-1.197.182-.42.371-.833.567-1.239.196-.42.392-.826.588-1.218l.546-1.134 2.772-5.523h3.024V91h-2.772v-3.885c0-1.204.014-2.303.042-3.297.042-.994.098-1.925.168-2.793h-.042c-.28.784-.616 1.603-1.008 2.457-.378.84-.749 1.617-1.113 2.331L111.2 91h-3.318V76.846h2.793zm13.333 0v4.368c0 .742.175 1.309.525 1.701.364.378.896.567 1.596.567.322 0 .637-.042.945-.126.322-.084.609-.196.861-.336v-6.174h3.045v14.343h-3.045v-5.88h-.063a7.056 7.056 0 01-1.365.504 6.882 6.882 0 01-1.47.147c-1.274 0-2.275-.357-3.003-1.071-.714-.714-1.071-1.778-1.071-3.192v-4.851h3.045zm17.338 8.085h-4.62v3.528h5.166V91h-8.232V76.846h7.938v2.541h-4.872v3.045h4.62v2.499zm11.953 5.733c-.266.126-.679.245-1.239.357-.546.112-1.19.168-1.932.168-1.134 0-2.128-.175-2.982-.525a6.113 6.113 0 01-2.121-1.491 6.716 6.716 0 01-1.281-2.247 9.117 9.117 0 01-.42-2.814c0-1.246.189-2.331.567-3.255.392-.938.91-1.715 1.554-2.331a6.37 6.37 0 012.268-1.407 8.103 8.103 0 012.73-.462c.728 0 1.351.063 1.869.189.532.112.917.231 1.155.357l-.609 2.457a4.602 4.602 0 00-.966-.315 5.209 5.209 0 00-1.302-.147c-.56 0-1.085.098-1.575.294-.49.182-.917.469-1.281.861-.364.392-.651.889-.861 1.491-.21.588-.315 1.288-.315 2.1 0 1.512.357 2.667 1.071 3.465.728.784 1.722 1.176 2.982 1.176.406 0 .812-.035 1.218-.105.42-.07.77-.161 1.05-.273l.42 2.457zm4.96-13.818v5.985h.252l3.423-5.985h3.633l-4.431 6.384c.434.112.805.28 1.113.504.308.21.574.462.798.756.238.294.441.63.609 1.008.168.364.315.756.441 1.176.224.742.441 1.477.651 2.205.224.714.483 1.421.777 2.121h-3.234a9.263 9.263 0 01-.546-1.554 54.474 54.474 0 00-.441-1.617 9.94 9.94 0 00-.378-1.092 2.941 2.941 0 00-.483-.882 2.065 2.065 0 00-.714-.588c-.266-.14-.595-.21-.987-.21h-.483V91h-3.024V76.846h3.024zm11.52 0v3.885c0 1.19-.021 2.338-.063 3.444-.028 1.106-.07 2.1-.126 2.982h.042c.168-.378.343-.777.525-1.197.182-.42.371-.833.567-1.239.196-.42.392-.826.588-1.218l.546-1.134 2.772-5.523h3.024V91h-2.772v-3.885c0-1.204.014-2.303.042-3.297.042-.994.098-1.925.168-2.793h-.042c-.28.784-.616 1.603-1.008 2.457-.378.84-.749 1.617-1.113 2.331L170.304 91h-3.318V76.846h2.793zM186.93 91l-1.176-2.583c-.224-.462-.42-.889-.588-1.281-.168-.406-.336-.819-.504-1.239h-.042c-.154.42-.308.833-.462 1.239-.154.406-.329.84-.525 1.302L182.604 91h-3.381l3.654-7.182-3.528-6.972h3.444l1.113 2.583c.182.42.343.812.483 1.176.154.364.308.749.462 1.155h.042c.154-.448.294-.847.42-1.197.14-.35.287-.728.441-1.134l1.05-2.583h3.381l-3.591 6.951 3.78 7.203h-3.444zm12.038-14.154v5.523h4.557v-5.523h3.066V91h-3.066v-5.922h-4.557V91h-3.066V76.846h3.066zm15.786 11.865c.462 0 .868-.119 1.218-.357.364-.252.665-.588.903-1.008.252-.434.434-.945.546-1.533a9.531 9.531 0 00.189-1.953c0-.63-.063-1.232-.189-1.806a4.92 4.92 0 00-.525-1.491 2.947 2.947 0 00-.903-1.029 2.08 2.08 0 00-1.26-.399 2.16 2.16 0 00-1.26.378 3.146 3.146 0 00-.924 1.029c-.238.434-.42.945-.546 1.533a9.647 9.647 0 00-.168 1.848c0 .672.063 1.302.189 1.89.126.588.308 1.099.546 1.533.252.42.56.756.924 1.008.364.238.777.357 1.239.357h.021zm-.147 2.499c-.966 0-1.827-.189-2.583-.567a5.743 5.743 0 01-1.89-1.533c-.504-.658-.889-1.428-1.155-2.31a10.198 10.198 0 01-.378-2.814c0-1.036.14-2.002.42-2.898.294-.896.707-1.673 1.239-2.331a6 6 0 011.953-1.554c.77-.378 1.638-.567 2.604-.567 1.022 0 1.911.196 2.667.588a5.382 5.382 0 011.869 1.575 6.582 6.582 0 011.113 2.289c.252.854.378 1.743.378 2.667 0 1.218-.154 2.289-.462 3.213-.294.924-.714 1.701-1.26 2.331a5.267 5.267 0 01-1.974 1.428c-.756.322-1.596.483-2.52.483h-.021zm10.245-14.364l3.255 5.943h.252v-5.943h2.898v5.943h.252l3.255-5.943h3.528l-4.515 6.363c.476.07.889.217 1.239.441.364.21.672.476.924.798.266.322.49.693.672 1.113.182.406.336.833.462 1.281.224.7.427 1.4.609 2.1.196.7.434 1.386.714 2.058h-3.066a9.127 9.127 0 01-.525-1.512c-.14-.546-.28-1.064-.42-1.554a13.848 13.848 0 00-.378-1.071 3.26 3.26 0 00-.504-.924 2.335 2.335 0 00-.756-.63c-.294-.168-.651-.252-1.071-.252h-.42V91h-2.898v-5.943h-.42c-.42 0-.777.084-1.071.252a2.335 2.335 0 00-.756.63c-.21.266-.385.574-.525.924-.14.35-.259.707-.357 1.071-.14.49-.28 1.008-.42 1.554a9.127 9.127 0 01-.525 1.512h-3.045c.28-.672.518-1.358.714-2.058.21-.7.413-1.386.609-2.058.126-.448.28-.875.462-1.281a5.24 5.24 0 01.651-1.092c.266-.322.574-.595.924-.819.35-.238.763-.399 1.239-.483l-4.515-6.363h3.528zm22.622 8.085h-4.62v3.528h5.166V91h-8.232V76.846h7.938v2.541h-4.872v3.045h4.62v2.499zm7.039-11.235c.028.406.105.721.231.945.14.21.378.315.714.315.574 0 .896-.42.966-1.26h2.037c-.084.91-.392 1.561-.924 1.953-.532.392-1.239.588-2.121.588-.868 0-1.561-.196-2.079-.588-.504-.406-.791-1.057-.861-1.953h2.037zm-1.596 3.15v3.885c0 1.19-.021 2.338-.063 3.444-.028 1.106-.07 2.1-.126 2.982h.042c.168-.378.343-.777.525-1.197.182-.42.371-.833.567-1.239.196-.42.392-.826.588-1.218l.546-1.134 2.772-5.523h3.024V91h-2.772v-3.885c0-1.204.014-2.303.042-3.297.042-.994.098-1.925.168-2.793h-.042c-.28.784-.616 1.603-1.008 2.457-.378.84-.749 1.617-1.113 2.331L253.442 91h-3.318V76.846h2.793z" fill="#fff"/></svg>