<svg width="297" height="85" fill="none" xmlns="http://www.w3.org/2000/svg"><path d="M277.479 8.775l-.284-1.875a.447.447 0 00-.117-.244.26.26 0 00-.215-.097h-2.861v11.064a.48.48 0 00.098.283.437.437 0 00.322.157l1.279.078V19h-5.42v-.86l1.28-.078c.143-.013.247-.065.312-.156a.45.45 0 00.107-.283V6.559h-2.88a.32.32 0 00-.235.097.407.407 0 00-.107.244l-.274 1.875h-1.162V5.582h11.338v3.193h-1.181zM290.848 19v-.86l1.064-.078a.437.437 0 00.322-.156.434.434 0 00.118-.283V6.598L287.752 19h-.996l-4.444-12.217v10.84a.45.45 0 00.108.283.473.473 0 00.332.157l1.143.078V19h-4.327v-.86l1.143-.078c.143-.013.247-.065.312-.156a.452.452 0 00.108-.283V6.959a.452.452 0 00-.108-.283c-.065-.091-.169-.143-.312-.156l-1.143-.079v-.859h4.483v.537l3.623 9.824 3.623-9.765v-.596h4.599v.86l-1.084.078a.476.476 0 00-.332.156.457.457 0 00-.107.283v10.664c0 .098.036.192.107.283a.475.475 0 00.332.157l1.084.078V19h-5.048zm-286.752.864H28.16v7.744H13.44v10.304H27.2v7.616H13.44V63H4.096V19.864zm40.531 0V63h-9.344V19.864h9.344zM52.846 63V19.864h10.24l8.256 16.128c1.11 2.09 2.219 4.395 3.328 6.912a105.42 105.42 0 013.008 7.232h.192c-.256-2.688-.47-5.59-.64-8.704a242.163 242.163 0 01-.192-9.92V19.864h8.448V63h-9.408L67.63 46.424a158.294 158.294 0 01-3.52-7.104 98.821 98.821 0 01-3.072-7.424h-.192c.128 2.688.235 5.61.32 8.768.085 3.115.128 6.57.128 10.368V63h-8.448zm50.157-7.104c.341.085.768.128 1.28.128h1.536c1.834 0 3.52-.277 5.056-.832a9.735 9.735 0 003.904-2.752c1.109-1.237 1.962-2.837 2.56-4.8.64-1.963.96-4.288.96-6.976 0-4.48-1.024-7.893-3.072-10.24-2.048-2.39-4.928-3.584-8.64-3.584-.854 0-1.579.043-2.176.128-.555.043-1.024.107-1.408.192v28.736zM93.659 20.44a72.09 72.09 0 015.375-.64 77.113 77.113 0 016.401-.256c3.712 0 6.826.363 9.344 1.088 2.517.725 4.714 1.835 6.592 3.328 2.133 1.664 3.797 3.861 4.992 6.592 1.194 2.688 1.792 6.016 1.792 9.984 0 4.267-.619 7.85-1.856 10.752-1.238 2.901-2.88 5.227-4.928 6.976-2.048 1.792-4.566 3.115-7.552 3.968-2.987.81-6.422 1.216-10.304 1.216-2.176 0-4.097-.064-5.76-.192-1.622-.128-2.987-.277-4.096-.448V20.44zm40.625-.576h9.28v19.2h.192a55.865 55.865 0 012.688-4.992l8.512-14.208h11.2L153.228 38.36 166.732 63h-10.688L146.7 44.632l-3.136 4.224V63h-9.28V19.864zm45.719 0V63h-9.344V19.864h9.344zM188.221 63V19.864h10.24l8.256 16.128a105.886 105.886 0 013.328 6.912 105.27 105.27 0 013.008 7.232h.192c-.256-2.688-.469-5.59-.64-8.704a242.163 242.163 0 01-.192-9.92V19.864h8.448V63h-9.408l-8.448-16.576a158.617 158.617 0 01-3.52-7.104 98.57 98.57 0 01-3.072-7.424h-.192c.128 2.688.235 5.61.32 8.768a382.7 382.7 0 01.128 10.368V63h-8.448zm73.197-1.728c-1.366.47-3.222.96-5.568 1.472-2.304.47-4.694.704-7.168.704-3.542 0-6.592-.427-9.152-1.28-2.56-.896-4.758-2.24-6.592-4.032-1.963-1.877-3.456-4.224-4.48-7.04-1.024-2.816-1.515-5.91-1.472-9.28.042-3.712.64-6.955 1.792-9.728 1.194-2.816 2.816-5.163 4.864-7.04 2.048-1.877 4.437-3.285 7.168-4.224 2.773-.939 5.738-1.408 8.896-1.408 2.474 0 4.608.192 6.4.576 1.792.384 3.157.81 4.095 1.28l-1.855 7.616c-1.024-.47-2.198-.853-3.52-1.152-1.323-.299-2.966-.448-4.928-.448-1.878 0-3.606.277-5.184.832a10.939 10.939 0 00-4.16 2.624c-1.195 1.152-2.134 2.645-2.816 4.48-.64 1.792-.96 3.925-.96 6.4 0 2.347.298 4.416.896 6.208.597 1.75 1.429 3.221 2.496 4.416a10.22 10.22 0 003.776 2.688c1.45.597 3.029.896 4.736.896 1.877 0 3.157-.17 3.84-.512v-9.536h-5.824v-7.36h14.72v22.848z" fill="#fff"/></svg>